HIERARCHY
ROOT SpineBase
{
  OFFSET 0.000000 0.000000 0.000000
  CHANNELS 6 Xposition Yposition Zposition Zrotation Xrotation Yrotation
  JOINT SpineMid
  {
    OFFSET 0.000000 32.048657 0.000000
    CHANNELS 3 Zrotation Xrotation Yrotation
    JOINT SpineShoulder
    {
      OFFSET -0.028406 23.815857 -0.688774
      CHANNELS 3 Zrotation Xrotation Yrotation
      JOINT Neck
      {
        OFFSET -0.061398 7.872501 -0.482004
        CHANNELS 3 Zrotation Xrotation Yrotation
        JOINT Head
        {
          OFFSET -5.118903 12.541520 -0.009937
          CHANNELS 3 Zrotation Xrotation Yrotation
          End Site
          {
            OFFSET 0 0 0
          }
        }
      }
      JOINT ShoulderLeft
      {
        OFFSET -16.066382 -5.266600 8.427433
        CHANNELS 3 Zrotation Xrotation Yrotation
        JOINT ElbowLeft
        {
          OFFSET -2.522592 -28.139958 2.208580
          CHANNELS 3 Zrotation Xrotation Yrotation
          JOINT WristLeft
          {
            OFFSET 1.440574 -23.361876 -3.479497
            CHANNELS 3 Zrotation Xrotation Yrotation
            JOINT HandLeft
            {
              OFFSET 0.541756 -7.121606 -0.778702
              CHANNELS 3 Zrotation Xrotation Yrotation
              JOINT HandTipLeft
              {
                OFFSET 1.363426 -7.172163 -0.176807
                CHANNELS 3 Zrotation Xrotation Yrotation
                End Site
                {
                  OFFSET 0 0 0
                }
              }
              JOINT ThumbLeft
              {
                OFFSET -2.073657 -0.967812 -2.492465
                CHANNELS 3 Zrotation Xrotation Yrotation
                End Site
                {
                  OFFSET 0 0 0
                }
              }
            }
          }
        }
      }
      JOINT ShoulderRight
      {
        OFFSET 12.214241 -4.190873 -8.846491
        CHANNELS 3 Zrotation Xrotation Yrotation
        JOINT ElbowRight
        {
          OFFSET 8.820169 -27.269601 -2.901633
          CHANNELS 3 Zrotation Xrotation Yrotation
          JOINT WristRight
          {
            OFFSET 1.119084 -21.032384 -5.972847
            CHANNELS 3 Zrotation Xrotation Yrotation
            JOINT HandRight
            {
              OFFSET -1.106327 -6.719507 -1.406365
              CHANNELS 3 Zrotation Xrotation Yrotation
              JOINT HandTipRight
              {
                OFFSET -0.377909 -6.901237 -0.367047
                CHANNELS 3 Zrotation Xrotation Yrotation
                End Site
                {
                  OFFSET 0 0 0
                }
              }
              JOINT ThumbRight
              {
                OFFSET -3.479956 -0.283707 -0.132442
                CHANNELS 3 Zrotation Xrotation Yrotation
                End Site
                {
                  OFFSET 0 0 0
                }
              }
            }
          }
        }
      }
    }
  }
  JOINT HipLeft
  {
    OFFSET -5.939082 -0.352309 0.115348
    CHANNELS 3 Zrotation Xrotation Yrotation
    JOINT KneeLeft
    {
      OFFSET 3.060229 -36.234279 7.803359
      CHANNELS 3 Zrotation Xrotation Yrotation
      JOINT AnkleLeft
      {
        OFFSET 8.608550 -35.409301 12.178087
        CHANNELS 3 Zrotation Xrotation Yrotation
        JOINT FootLeft
        {
          OFFSET -2.545032 -8.187952 -4.005655
          CHANNELS 3 Zrotation Xrotation Yrotation
          End Site
          {
            OFFSET 0 0 0
          }
        }
      }
    }
  }
  JOINT HipRight
  {
    OFFSET 6.461583 1.784764 -6.497866
    CHANNELS 3 Zrotation Xrotation Yrotation
    JOINT KneeRight
    {
      OFFSET 9.302803 -34.725949 -0.052746
      CHANNELS 3 Zrotation Xrotation Yrotation
      JOINT AnkleRight
      {
        OFFSET 7.747846 -34.794811 9.739088
        CHANNELS 3 Zrotation Xrotation Yrotation
        JOINT FootRight
        {
          OFFSET -0.828103 -8.353120 -4.225368
          CHANNELS 3 Zrotation Xrotation Yrotation
          End Site
          {
            OFFSET 0 0 0
          }
        }
      }
    }
  }
}
MOTION
Frames: 9
Frame Time: 0.033333
-27.402517 81.170542 332.825184 -0.000000 0.000000 28.070779 0.000000 0.000000 -28.070779 -0.000000 0.000000 0.000000 -0.000000 0.000000 0.000000 0.000000 0.000000 0.000000 -0.000000 0.000000 0.000000 -0.000000 0.000000 0.000000 -0.000000 0.000000 0.000000 -0.000000 0.000000 0.000000 0.000000 0.000000 0.000000 0.000000 0.000000 0.000000 -0.000000 0.000000 0.000000 -0.000000 0.000000 0.000000 -0.000000 0.000000 0.000000 -0.000000 0.000000 0.000000 0.000000 0.000000 0.000000 0.000000 0.000000 0.000000 0.000000 0.000000 -28.070779 -0.000000 0.000000 0.000000 -0.000000 0.000000 0.000000 0.000000 0.000000 0.000000 0.000000 0.000000 -28.070779 -0.000000 0.000000 0.000000 -0.000000 0.000000 0.000000 0.000000 0.000000 0.000000
-27.846385 81.183234 333.081378 -0.395245 -0.224916 28.014560 0.454575 0.012913 -28.015387 -0.000000 0.000000 0.000000 -0.000000 0.000000 0.000000 0.000000 0.000000 0.000000 0.431410 0.732361 -0.034580 0.575824 -0.049266 -0.071824 0.261847 -1.205888 -0.055620 -2.458647 -0.628044 -0.005546 0.000000 0.000000 0.000000 0.000000 0.000000 0.000000 -0.000000 0.000000 0.000000 -0.000000 0.000000 0.000000 -0.576613 -1.759503 0.402502 0.589234 1.755318 -0.420384 0.000000 0.000000 0.000000 0.000000 0.000000 0.000000 0.454575 0.012913 -28.015387 -0.000000 0.000000 0.000000 1.244145 -0.357099 -0.496231 0.000000 0.000000 0.000000 0.454575 0.012913 -28.015387 -0.000000 0.000000 0.000000 -1.828461 3.520255 0.621439 0.000000 0.000000 0.000000
-28.205241 81.194815 333.284413 -0.699010 -0.388757 27.971436 0.799687 0.015466 -27.973915 -0.000000 0.000000 0.000000 -0.000000 0.000000 0.000000 0.000000 0.000000 0.000000 0.763585 1.282583 -0.063691 0.917078 -0.200221 -0.114843 0.354838 -2.478705 -0.097516 -4.244037 -0.705967 0.023887 0.000000 0.000000 0.000000 0.000000 0.000000 0.000000 -0.000000 0.000000 0.000000 -0.426787 0.899259 0.172049 -0.447897 -4.534710 0.576434 0.910240 3.624699 -0.811971 0.000000 0.000000 0.000000 0.000000 0.000000 0.000000 2.165237 0.151071 -27.665469 -1.146550 -0.754061 -0.317976 2.131832 -0.479966 -0.891891 0.000000 0.000000 0.000000 2.145419 0.115227 -27.784976 -1.144140 -0.715511 -0.197619 -3.244780 6.026954 1.179831 0.000000 0.000000 0.000000
-28.479086 81.205283 333.434291 -0.911534 -0.491678 27.942015 0.193759 0.085572 -27.968267 -0.068509 -0.071408 -0.032443 0.848619 0.397484 0.052123 0.000000 0.000000 0.000000 1.845872 2.053058 -0.039341 1.055211 -0.430213 -0.136686 0.017303 -3.877328 -0.127136 -5.114720 -0.178103 0.082572 0.000000 0.000000 0.000000 0.000000 0.000000 0.000000 0.848619 0.397484 0.052123 -0.579262 1.179495 0.232608 -0.276212 -6.784588 0.826638 -0.005296 5.392506 -1.000819 0.000000 0.000000 0.000000 0.000000 0.000000 0.000000 2.848920 0.184184 -27.536593 -1.526215 -0.995071 -0.425680 2.667002 -0.364353 -1.193687 0.000000 0.000000 0.000000 2.826329 0.136913 -27.695919 -1.525386 -0.946976 -0.264930 -4.243402 7.567887 1.616768 0.000000 0.000000 0.000000
-28.667918 81.214640 333.531009 -1.033018 -0.533811 27.926713 0.173636 0.095421 -27.957851 -0.088313 -0.081993 -0.038773 1.012134 0.451284 0.061515 0.000000 0.000000 0.000000 2.148001 2.303808 -0.042701 1.010009 -0.726195 -0.142922 -0.951317 -5.390625 -0.157511 -4.885652 0.946646 0.131905 0.000000 0.000000 0.000000 0.000000 0.000000 0.000000 1.012134 0.451284 0.061515 -0.691146 1.348117 0.275309 0.188778 -8.986091 1.069363 -0.461694 7.342503 -1.197488 0.000000 0.000000 0.000000 0.000000 0.000000 0.000000 3.268355 0.186693 -27.455415 -1.777054 -1.147075 -0.496983 2.853986 -0.008678 -1.404440 0.000000 0.000000 0.000000 3.247035 0.132730 -27.641609 -2.097406 -0.260352 -0.217255 -4.479350 7.365861 1.732539 0.000000 0.000000 0.000000
-28.771739 81.222885 333.574570 -1.063607 -0.515243 27.925766 0.111460 0.095841 -27.959272 -0.106447 -0.085943 -0.042795 1.115926 0.465646 0.067435 0.000000 0.000000 0.000000 2.295178 2.340542 -0.036925 0.791371 -1.082955 -0.137284 -2.614801 -6.919049 -0.208232 -3.501803 2.570727 0.104579 0.000000 0.000000 0.000000 0.000000 0.000000 0.000000 1.115926 0.465646 0.067435 -0.762490 1.405808 0.299757 0.958545 -11.105132 1.317499 -1.186276 9.317699 -1.293766 0.000000 0.000000 0.000000 0.000000 0.000000 0.000000 3.424358 0.157633 -27.421501 -1.899216 -1.210864 -0.530922 2.696773 0.586355 -1.522839 0.000000 0.000000 0.000000 3.408096 0.101903 -27.621750 -2.257925 -0.242794 -0.228772 -4.606222 7.012609 1.821689 0.000000 0.000000 0.000000
-28.689081 81.234893 333.498811 -0.874958 -0.334117 27.962779 -0.075445 0.064437 -27.993318 -0.159932 -0.113188 -0.044811 1.131268 0.427111 0.068390 0.000000 0.000000 0.000000 2.268295 2.132127 -0.020532 0.255951 -1.747565 -0.121366 -6.243009 -9.132499 -0.345654 0.745411 5.372948 -0.323865 0.000000 0.000000 0.000000 0.000000 0.000000 0.000000 1.131268 0.427111 0.068390 -0.746874 1.300377 0.288940 2.453348 -13.357958 1.615070 -1.850283 11.339024 -1.364165 0.000000 0.000000 0.000000 0.000000 0.000000 0.000000 2.981156 0.058399 -27.496016 -1.740010 -1.101036 -0.484084 1.274980 3.492926 -1.728729 0.000000 0.000000 0.000000 2.956609 0.004588 -27.683204 -2.157857 -0.046865 -0.194934 -3.698353 4.324732 1.538306 0.000000 0.000000 0.000000
-28.608134 81.248000 333.423931 -0.699864 -0.175334 27.948619 -0.229464 0.050203 -27.976696 -0.172994 -0.098529 -0.043436 1.098731 0.338311 0.066675 0.000000 0.000000 0.000000 2.068174 1.672201 0.006289 -0.476564 -2.455166 -0.094274 -9.074493 -10.374496 -0.490976 3.520838 7.343404 -0.760498 0.000000 0.000000 0.000000 0.000000 0.000000 0.000000 1.098731 0.338311 0.066675 -0.722560 1.147093 0.272783 4.100955 -15.435354 1.943600 -3.671150 13.556759 -1.090190 0.000000 0.000000 0.000000 0.000000 0.000000 0.000000 2.542013 -0.048504 -27.524787 -1.575678 -0.961501 -0.433504 0.755315 4.040050 -1.627571 0.000000 0.000000 0.000000 2.560672 -0.074843 -27.691151 -2.000747 -0.019236 -0.175619 -2.012204 0.020812 1.010787 0.000000 0.000000 0.000000
-28.479775 81.242775 333.332611 -0.492437 -0.015246 27.996609 -0.382412 0.040550 -28.021856 -0.175758 -0.066159 -0.040106 1.024669 0.226183 0.062483 0.000000 0.000000 0.000000 1.731638 0.995168 0.041610 -1.300905 -2.981576 -0.059136 -10.887186 -10.881884 -0.586922 6.781806 9.015161 -1.318008 0.000000 0.000000 0.000000 0.000000 0.000000 0.000000 1.024669 0.226183 0.062483 -0.688438 0.840510 0.244847 5.927732 -17.572934 2.374043 -5.786568 16.012061 -0.664438 0.000000 0.000000 0.000000 0.000000 0.000000 0.000000 2.004081 -0.147139 -27.633553 -1.351247 -0.787018 -0.366588 0.412121 4.177626 -1.490721 0.000000 0.000000 0.000000 2.041923 -0.167549 -27.780199 -1.696293 -0.030161 -0.138810 0.427199 -5.999121 0.391707 0.000000 0.000000 0.000000
